<svg width="512" height="512" viewBox="0 0 512 512" fill="none" xmlns="http://www.w3.org/2000/svg" role="img" aria-labelledby="title desc">
  <title id="title">Cloudflare IP 优选助手</title>
  <desc id="desc">A minimal black app icon with a cloud, route, and speed mark.</desc>
  <rect x="52" y="52" width="408" height="408" rx="104" fill="#050505"/>
  <path d="M173 309C142.1 309 117 284.3 117 253.8C117 226.6 137.3 203.5 164.1 199.6C177.5 171.4 206.2 153 238.3 153C278.5 153 312.2 181.7 319.8 219.4C346.2 224.1 366 246.5 366 273.4C366 303.5 341.2 309 310.6 309H173Z" fill="white"/>
  <path d="M295 148H339V191H295V148Z" fill="white"/>
  <path d="M201 256L304 204V256L201 309V256Z" fill="white"/>
  <path d="M201 325L304 272V324L201 377V325Z" fill="white"/>
  <path d="M340 264C370.9 268.9 396 293.4 396 327C396 363.1 366.9 392 331 392H189C153.1 392 124 363.1 124 327C124 311.2 129.6 296.7 139 285.5C148.8 306.9 170.5 322 196 322H312C326.3 322 337.9 310.5 337.9 296.3C337.9 284.4 330.1 274.5 319.4 271.4C323.9 266.3 331.1 262.6 340 264Z" fill="white" fill-opacity="0.18"/>
</svg>
